<?xml version="1.0" encoding="utf-8"?>
<!-- Generator: Adobe Illustrator 23.0.0, SVG Export Plug-In . SVG Version: 6.00 Build 0)  -->
<svg version="1.1" id="Layer_1" xmlns="http://www.w3.org/2000/svg" xmlns:xlink="http://www.w3.org/1999/xlink" x="0px" y="0px"
	 viewBox="0 0 1366 768" style="enable-background:new 0 0 1366 768;" xml:space="preserve">
<style type="text/css">
	.st0{fill:none;stroke:#000000;stroke-miterlimit:10;}
	.st1{fill:none;stroke:#000000;stroke-width:3;stroke-miterlimit:10;}
	.st2{fill:#FFFFFF;stroke:#000000;stroke-width:3;stroke-miterlimit:10;}
	.st3{fill:#FFFFFF;stroke:#006359;stroke-width:4;stroke-miterlimit:10;}
	.st4{fill:none;stroke:#006359;stroke-width:2;stroke-miterlimit:10;}
	.st5{fill:none;stroke:#000000;stroke-width:0.25;stroke-miterlimit:10;}
	.st6{fill:none;}
	.st7{font-family:'MyriadPro-Regular';}
	.st8{font-size:65px;}
</style>
<path d="M468.71,708h428.59c14.1,0,25.64-11.54,25.64-25.64v0c0-14.1-11.54-25.64-25.64-25.64H468.71
	c-14.1,0-25.64,11.54-25.64,25.64v0C443.07,696.46,454.6,708,468.71,708z"/>
<ellipse class="st0" cx="683" cy="635.69" rx="15.44" ry="15.58"/>
<path class="st1" d="M601.47,654.39h163.05c21.21,0,38.56-17.35,38.56-38.56V100.04c0-21.21-17.35-38.56-38.56-38.56H601.47
	c-21.21,0-38.56,17.35-38.56,38.56v515.79C562.92,637.04,580.27,654.39,601.47,654.39z"/>
<g>
	<path d="M674.59,165.58h16.83c9.48,0,17.23-7.75,17.23-17.23V61.4h-51.28v86.95C657.36,157.82,665.11,165.58,674.59,165.58z"/>
	<path class="st2" d="M728.39,166.58h16.83c9.48,0,17.23-7.75,17.23-17.23V62.4h-51.28v86.95
		C711.16,158.82,718.91,166.58,728.39,166.58z"/>
	<path class="st2" d="M620.78,166.58h16.83c9.48,0,17.23-7.75,17.23-17.23V62.4h-51.28v86.95
		C603.56,158.82,611.31,166.58,620.78,166.58z"/>
	<path d="M782.19,165.58h16.83c9.48,0,17.23-7.75,17.23-17.23V61.4h-51.28v86.95C764.96,157.82,772.72,165.58,782.19,165.58z"/>
	<path d="M566.98,165.58h16.83c9.48,0,17.23-7.75,17.23-17.23V61.4h-51.28v86.95C549.75,157.82,557.51,165.58,566.98,165.58z"/>
	<path class="st2" d="M513.18,166.58h16.83c9.48,0,17.23-7.75,17.23-17.23V62.4h-51.28v86.95
		C495.95,158.82,503.7,166.58,513.18,166.58z"/>
	<path d="M459.38,165.58h16.83c9.48,0,17.23-7.75,17.23-17.23V61.4h-51.28v86.95C442.15,157.82,449.9,165.58,459.38,165.58z"/>
	<path d="M889.79,165.58h16.83c9.48,0,17.23-7.75,17.23-17.23V61.4h-51.28v86.95C872.57,157.82,880.32,165.58,889.79,165.58z"/>
	<path class="st2" d="M835.99,166.58h16.83c9.48,0,17.23-7.75,17.23-17.23V62.4h-51.28v86.95
		C818.76,158.82,826.52,166.58,835.99,166.58z"/>
</g>
<circle class="st3" cx="683" cy="316.5" r="79.5"/>
<line class="st4" x1="734.97" y1="278.45" x2="704.97" y2="308.45"/>
<line class="st4" x1="705.97" y1="282.45" x2="734.97" y2="311.45"/>
<g>
	<line class="st4" x1="690" y1="341.8" x2="676" y2="355.8"/>
	<line class="st4" x1="676.47" y1="343.67" x2="690" y2="357.2"/>
</g>
<line class="st4" x1="668.41" y1="282.27" x2="637.5" y2="313.18"/>
<line class="st4" x1="639.88" y1="288.61" x2="670" y2="318.73"/>
<g>
	<line class="st5" x1="801.5" y1="608.5" x2="564.5" y2="608.5"/>
</g>
<rect x="572.85" y="427.6" class="st6" width="215.49" height="63.32"/>
<text transform="matrix(1 0 0 1 630.5801 473.7451)" class="st7 st8">404</text>
</svg>
