<?xml version="1.0" encoding="utf-8"?>
<!-- Generator: Adobe Illustrator 23.0.0, SVG Export Plug-In . SVG Version: 6.00 Build 0)  -->
<svg version="1.1" id="Layer_1" xmlns="http://www.w3.org/2000/svg" xmlns:xlink="http://www.w3.org/1999/xlink" x="0px" y="0px"
	 viewBox="0 0 761.41 1077.49" style="enable-background:new 0 0 761.41 1077.49;" xml:space="preserve">
<style type="text/css">
	.st0{fill:none;stroke:#000000;stroke-miterlimit:10;}
	.st1{fill:#FFFFFF;stroke:#000000;stroke-width:2;stroke-miterlimit:10;}
	.st2{fill:#00CEC9;}
	.st3{fill:none;stroke:#000000;stroke-width:5;stroke-miterlimit:10;}
	.st4{fill:#FFFFFF;stroke:#000000;stroke-width:5;stroke-miterlimit:10;}
	.st5{fill:#FCED2E;}
</style>
<path d="M43.7,1077.15h674.02c22.85,0,41.54-18.7,41.54-41.54v-2.24c0-22.85-18.7-41.54-41.54-41.54H43.7
	c-22.85,0-41.54,18.7-41.54,41.54v2.24C2.15,1058.45,20.85,1077.15,43.7,1077.15z"/>
<ellipse class="st0" cx="380.71" cy="956.83" rx="24.37" ry="25.92"/>
<path class="st1" d="M570.27,197.64l-34.16,36.8H233.19l-42.6-36.6C190.59,197.83,571.48,196.36,570.27,197.64z"/>
<path class="st2" d="M570.27,159.37l-34.16,36.8H233.19l-42.6-36.6C190.59,159.57,571.48,158.1,570.27,159.37z"/>
<path class="st2" d="M570.27,235.91l-34.16,36.8H233.19l-42.6-36.6C190.59,236.1,571.48,234.63,570.27,235.91z"/>
<path class="st1" d="M570.27,274.17l-34.16,36.8H233.19l-42.6-36.6C190.59,274.37,571.48,272.9,570.27,274.17z"/>
<path class="st2" d="M570.27,312.44l-34.16,36.8H233.19l-42.6-36.6C190.59,312.64,571.48,311.17,570.27,312.44z"/>
<path class="st1" d="M570.27,350.71l-34.16,36.8H233.19l-42.6-36.6C190.59,350.9,571.48,349.43,570.27,350.71z"/>
<path class="st2" d="M570.27,388.97l-34.16,36.8H233.19l-42.6-36.6C190.59,389.17,571.48,387.7,570.27,388.97z"/>
<path class="st1" d="M570.27,427.24l-34.16,36.8H233.19l-42.6-36.6C190.59,427.44,571.48,425.97,570.27,427.24z"/>
<path class="st2" d="M570.27,465.51l-34.16,36.8H233.19l-42.6-36.6C190.59,465.7,571.48,464.23,570.27,465.51z"/>
<path class="st1" d="M570.27,503.78l-34.16,36.8H233.19l-42.6-36.6C190.59,503.97,571.48,502.5,570.27,503.78z"/>
<path class="st2" d="M570.27,542.04l-34.16,36.8H233.19l-42.6-36.6C190.59,542.24,571.48,540.77,570.27,542.04z"/>
<path class="st1" d="M570.27,580.31l-34.16,36.8H233.19l-42.6-36.6C190.59,580.51,571.48,579.04,570.27,580.31z"/>
<path class="st2" d="M570.27,618.58l-34.16,36.8H233.19l-42.6-36.6C190.59,618.77,571.48,617.3,570.27,618.58z"/>
<path class="st1" d="M570.27,656.85l-34.16,36.8H233.19l-42.6-36.6C190.59,657.04,571.48,655.57,570.27,656.85z"/>
<path class="st2" d="M570.27,695.11l-34.16,36.8H233.19l-42.6-36.6C190.59,695.31,571.48,693.84,570.27,695.11z"/>
<path class="st1" d="M570.27,733.38l-34.16,36.8H233.19l-42.6-36.6C190.59,733.57,571.48,732.11,570.27,733.38z"/>
<path class="st2" d="M570.27,771.65l-34.16,36.8H233.19l-42.6-36.6C190.59,771.84,571.48,770.37,570.27,771.65z"/>
<path class="st1" d="M570.27,809.91l-34.16,36.8H233.19l-42.6-36.6C190.59,810.11,571.48,808.64,570.27,809.91z"/>
<path class="st2" d="M570.27,848.18l-34.16,36.8H233.19l-42.6-36.6C190.59,848.38,571.48,846.91,570.27,848.18z"/>
<path class="st1" d="M570.27,886.45l-34.16,36.8H233.19l-42.6-36.6C190.59,886.64,571.48,885.17,570.27,886.45z"/>
<path class="st3" d="M253.72,988.88H507.7c34.36,0,62.47-28.11,62.47-50.47V76.88c0-46.36-27.11-74.47-61.47-74.47H254.72
	c-34.36,0-63.47,28.11-63.47,64.47v861.53C191.25,960.77,219.36,988.88,253.72,988.88z"/>
<g>
	<path d="M368.16,174.67h25.09c15.35,0,27.91-12.56,27.91-27.91l1-145.41l-80.91,0l-1,145.41
		C340.25,162.11,352.81,174.67,368.16,174.67z"/>
	<path class="st4" d="M453.05,176.33h25.09c15.35,0,27.91-12.56,27.91-27.91l1-145.41h-80.91l-1,145.41
		C425.14,163.77,437.7,176.33,453.05,176.33z"/>
	<path class="st4" d="M283.28,176.33h25.09c15.35,0,27.91-12.56,27.91-27.91l1-145.41h-80.91l-1,145.41
		C255.36,163.77,267.93,176.33,283.28,176.33z"/>
	<path d="M537.94,174.67h25.09c15.35,0,27.91-12.56,27.91-27.91l1-145.41l-80.91,0l-1,145.41
		C510.02,162.11,522.58,174.67,537.94,174.67z"/>
	<path d="M198.39,174.67h25.09c15.35,0,27.91-12.56,27.91-27.91l1-145.41l-80.91,0l-1,145.41
		C170.48,162.11,183.04,174.67,198.39,174.67z"/>
	<path class="st4" d="M113.51,176.33h25.09c15.35,0,27.91-12.56,27.91-27.91l1-145.41H86.59l-1,145.41
		C85.59,163.77,98.15,176.33,113.51,176.33z"/>
	<path d="M28.62,174.67h25.09c15.35,0,27.91-12.56,27.91-27.91l1-145.41l-80.91,0l-1,145.41C0.71,162.11,13.27,174.67,28.62,174.67z
		"/>
	<path d="M707.71,174.67h25.09c15.35,0,27.91-12.56,27.91-27.91l1-145.41l-80.91,0l-1,145.41
		C679.79,162.11,692.36,174.67,707.71,174.67z"/>
	<path class="st4" d="M622.82,176.33h25.09c15.35,0,27.91-12.56,27.91-27.91l1-145.41h-80.91l-1,145.41
		C594.91,163.77,607.47,176.33,622.82,176.33z"/>
</g>
<rect x="329.71" y="372.74" transform="matrix(-0.7071 0.7071 -0.7071 -0.7071 1029.4436 647.0798)" class="st5" width="102" height="328"/>
<g>
	<path d="M376.2,506.68l-12.63-12.63l-9.78,7.23c0.87,0.66,1.68,1.27,2.9,2.49c2.55,2.55,4.53,5.65,5.35,8.91
		c1.12,4.07,0.41,9.06-3.77,13.24c-6.47,6.47-16.45,6.16-23.62-1.02c-3.62-3.62-5.65-7.69-6.21-10.28l4.53-2.29
		c0.56,2.19,2.24,5.91,5.24,8.91c4.23,4.23,10.59,5.09,15.02,0.66c4.23-4.33,4.43-10.23-2.19-16.85c-1.88-1.88-3.56-3.16-4.94-4.23
		l18.02-13.75l15.83,15.83L376.2,506.68z"/>
	<path d="M392.14,547.46c-11.25,11.25-21.64,13.29-28.97,5.96c-6.47-6.47-4.79-16.9,6.06-27.95c11.1-11.1,22-12.42,28.72-5.7
		C404.92,526.74,402.68,536.92,392.14,547.46z M373.66,530c-8.6,8.6-10.84,16.14-6.77,20.21c4.58,4.58,12.12,1.43,20.57-7.03
		c8.15-8.15,11.4-15.58,6.77-20.21C390.3,519.05,382.67,520.99,373.66,530z"/>
	<path d="M418.25,573.58c-11.25,11.25-21.64,13.29-28.97,5.96c-6.47-6.47-4.79-16.9,6.06-27.95c11.1-11.1,22-12.42,28.72-5.7
		C431.03,552.86,428.79,563.04,418.25,573.58z M399.77,556.12c-8.6,8.6-10.84,16.14-6.77,20.21c4.58,4.58,12.12,1.43,20.57-7.03
		c8.15-8.15,11.4-15.58,6.77-20.21C416.42,545.17,408.78,547.1,399.77,556.12z"/>
</g>
</svg>
