<svg id="Layer_1" data-name="Layer 1" xmlns="http://www.w3.org/2000/svg" viewBox="0 0 132.04 143.96"><title>box</title><rect x="17.56" y="88.32" width="95.81" height="54.83" style="fill:#ffbe62"/><path d="M115.46,146.09H18V89.63h97.43Zm-95.81-1.63h94.19V91.26H19.65Z" transform="translate(-1.28 -2.13)"/><polygon points="1.05 89.36 130.99 89.36 126.11 70.53 5.93 70.53 1.05 89.36" style="fill:#25ccf7"/><path d="M133.32,92.3H1.28l5.3-20.46H128ZM3.38,90.67H131.22l-4.46-17.2H7.84Z" transform="translate(-1.28 -2.13)"/><rect x="59.37" y="0.81" width="13.01" height="32.12" style="fill:#fff"/><path d="M74.48,35.88H59.84V2.13H74.48Zm-13-1.63H72.85V3.75H61.47Z" transform="translate(-1.28 -2.13)"/><polygon points="65.88 30.43 81.39 30.43 73.64 43.85 65.88 57.28 58.13 43.85 50.38 30.43 65.88 30.43" style="fill:#fff"/><path d="M67.16,61,50.24,31.74H84.08ZM53.06,33.37l14.1,24.42,14.1-24.42Z" transform="translate(-1.28 -2.13)"/><rect x="54.79" y="134.21" width="21.35" height="8.93" style="fill:#fff"/><path d="M78.23,146.09h-23V135.53h23Zm-21.35-1.63H76.6v-7.31H56.88Z" transform="translate(-1.28 -2.13)"/></svg>