<svg id="Layer_1" data-name="Layer 1" xmlns="http://www.w3.org/2000/svg" viewBox="0 0 320.65 474.3"><title>callcenter</title><path d="M165,398.91h0a131.1,131.1,0,0,0,131.1-131.1V159.57c0-72.41-58.69-141.88-131.1-141.88h0c-72.4,0-131.1,69.47-131.1,141.88V267.81A131.11,131.11,0,0,0,165,398.91Z" transform="translate(-4.68 -15)" style="fill:#ffbe62"/><path d="M165,401.6c-73.77,0-133.79-60-133.79-133.79V159.57C31.21,82.55,93.73,15,165,15S298.8,82.55,298.8,159.57V267.81C298.8,341.58,238.78,401.6,165,401.6Zm0-381.21c-68.4,0-128.41,65-128.41,139.18V267.81a128.41,128.41,0,0,0,256.82,0V159.57C293.41,85.42,233.41,20.39,165,20.39Z" transform="translate(-4.68 -15)"/><path d="M322.63,486.23c0-92.44-36.37-173.79-157.63-173.79C38.27,312.44,7.37,393.79,7.37,486.23Z" transform="translate(-4.68 -15)" style="fill:#25ccf7"/><path d="M325.32,488.93H4.68v-2.7C4.68,367.48,57.12,309.75,165,309.75c132.51,0,160.32,96,160.32,176.48ZM10.07,483.54H319.93c-.62-77.48-28.34-168.41-154.93-168.41C61.56,315.13,10.86,370.23,10.07,483.54Z" transform="translate(-4.68 -15)"/><path d="M165,309.35" transform="translate(-4.68 -15)" style="fill:#fff;stroke:#000;stroke-miterlimit:10"/><path d="M104.49,324.25h0a114.42,114.42,0,0,1,121,0h0L178.45,476.68c-4.09,13.23-22.81,13.23-26.89,0Z" transform="translate(-4.68 -15)" style="fill:#fff"/><path d="M165,489.3a16.49,16.49,0,0,1-16-11.82L101.31,323.06l1.76-1.1a117.89,117.89,0,0,1,123.87,0l1.76,1.1L181,477.48A16.48,16.48,0,0,1,165,489.3ZM107.68,325.45l46.45,150.44a11.38,11.38,0,0,0,21.74,0l46.45-150.44A112.55,112.55,0,0,0,107.68,325.45Z" transform="translate(-4.68 -15)"/><path d="M198.36,270.5v47.32A33.37,33.37,0,0,1,165,351.18h0a33.37,33.37,0,0,1-33.36-33.36V270.5Z" transform="translate(-4.68 -15)" style="fill:#fff"/><path d="M165,353.87A36.09,36.09,0,0,1,129,317.82v-50h72.1v50A36.09,36.09,0,0,1,165,353.87Zm-30.66-80.68v44.63a30.67,30.67,0,0,0,61.33,0V273.19Z" transform="translate(-4.68 -15)"/><path d="M165.3,125.63C155.82,112.5,141,109.08,129,108.84a39.35,39.35,0,0,0-33.67,18.25A82.36,82.36,0,0,0,82,172v26.54a83.24,83.24,0,0,0,83,83h0a83.23,83.23,0,0,0,83-83V150.42s-5.5-20.19-28.42-11.25a55.79,55.79,0,0,1-26,3.36A40.68,40.68,0,0,1,165.3,125.63Z" transform="translate(-4.68 -15)" style="fill:#fff"/><path d="M165,284.2a85.79,85.79,0,0,1-85.69-85.69V172A85.13,85.13,0,0,1,93,125.63a41.87,41.87,0,0,1,36-19.49c17,.34,30.27,6.53,38.49,17.91h0a38,38,0,0,0,26.38,15.8,53,53,0,0,0,24.72-3.19c8.15-3.18,15.25-3.29,21.09-.35,8.32,4.19,10.81,13,10.91,13.4l.1.71v48.09A85.79,85.79,0,0,1,165,284.2ZM128.18,111.52a36.46,36.46,0,0,0-30.64,17A79.68,79.68,0,0,0,84.7,172v26.54a80.3,80.3,0,0,0,160.6,0V150.83c-.46-1.37-2.66-7-8.09-9.73-4.41-2.21-10-2-16.66.58a58.72,58.72,0,0,1-27.27,3.53,43.43,43.43,0,0,1-30.16-18h0c-7.29-10.1-18.81-15.37-34.23-15.68Z" transform="translate(-4.68 -15)"/><ellipse cx="181.87" cy="227.54" rx="20.71" ry="13.75" style="fill:#25ccf7"/><path d="M186.55,259c-13.13,0-23.41-7.22-23.41-16.44s10.28-16.45,23.41-16.45,23.4,7.23,23.4,16.45S199.67,259,186.55,259Zm0-27.5c-9.77,0-18,5.06-18,11.06s8.25,11.06,18,11.06,18-5.07,18-11.06S196.31,231.48,186.55,231.48Z" transform="translate(-4.68 -15)"/><rect x="200.41" y="224.84" width="27.56" height="5.39"/></svg>