<svg id="Layer_1" data-name="Layer 1" xmlns="http://www.w3.org/2000/svg" viewBox="0 0 153.06 253.53"><title>collect</title><path d="M120,160.25" transform="translate(-3.91 -4.57)" style="fill:none;stroke:#000;stroke-miterlimit:10"/><path d="M41.38,102.48V242.21a14.48,14.48,0,0,0,14.44,14.43h0a14.48,14.48,0,0,0,14.44-14.43V188.13a10.45,10.45,0,0,1,10.45-10.46h0a10.46,10.46,0,0,1,10.46,10.46v54.08a14.47,14.47,0,0,0,14.43,14.43h0A14.48,14.48,0,0,0,120,242.21V101.75" transform="translate(-3.91 -4.57)" style="fill:#25ccf7"/><path d="M105.6,258.11a15.92,15.92,0,0,1-15.9-15.9V188.13a9,9,0,1,0-18,0v54.08a15.9,15.9,0,1,1-31.8,0V102.48h2.92V242.21a13,13,0,0,0,26,0V188.13a11.92,11.92,0,0,1,23.84,0v54.08a13,13,0,0,0,26,0V101.75h2.92V242.21A15.92,15.92,0,0,1,105.6,258.11Z" transform="translate(-3.91 -4.57)"/><path d="M81,76.2a35.82,35.82,0,1,1,35.82-35.81A35.85,35.85,0,0,1,81,76.2ZM81,7.5a32.89,32.89,0,1,0,32.89,32.89A32.93,32.93,0,0,0,81,7.5Z" transform="translate(-3.91 -4.57)"/><rect x="57.26" y="101.86" width="40.34" height="31.69" style="fill:#ffbe62"/><path d="M103,139.59H59.7V105H103Zm-40.35-2.92H100V107.9H62.62Z" transform="translate(-3.91 -4.57)"/><rect x="68.07" y="124.78" width="18.26" height="8.36" style="fill:#fff"/><path d="M91.7,139.17H70.52V127.89H91.7Zm-18.26-2.92H88.77v-5.43H73.44Z" transform="translate(-3.91 -4.57)"/><path d="M114.1,103.93l2.88,5.9H106.44a11,11,0,0,0-11,11h0a11,11,0,0,0,11,10.94h36.48a11.93,11.93,0,0,0,1.32-.07c8.27-.9,13.25-9.72,10.52-17.57l-.79-2.26a13.23,13.23,0,0,0-3.19-5.09L125.09,81l0,0a17.38,17.38,0,0,0-12.4-5.65H48.22A17.38,17.38,0,0,0,35.82,81l0,0L10.09,106.73a13.23,13.23,0,0,0-3.19,5.09l-.79,2.26c-2.73,7.85,2.25,16.67,10.52,17.57a11.93,11.93,0,0,0,1.32.07H54.43a11,11,0,0,0,10.95-10.94h0a11,11,0,0,0-10.95-11H43.89l2.88-5.9" transform="translate(-3.91 -4.57)" style="fill:#25ccf7"/><path d="M142.92,133.19H106.44a12.41,12.41,0,0,1,0-24.82h8.2l-1.85-3.79,2.63-1.29,3.9,8H106.44a9.49,9.49,0,1,0,0,19h36.48a11.41,11.41,0,0,0,1.16-.06,11,11,0,0,0,8.08-5.13,12.3,12.3,0,0,0,1.22-10.51l-.79-2.26a12,12,0,0,0-2.84-4.54L124.06,82.07a16,16,0,0,0-11.41-5.26H48.22A15.92,15.92,0,0,0,36.87,82L11.12,107.76a12,12,0,0,0-2.84,4.54l-.79,2.26a12.29,12.29,0,0,0,1.22,10.51,11,11,0,0,0,8.07,5.13q.6.06,1.17.06H54.43a9.49,9.49,0,1,0,0-19H41.55l3.91-8,2.62,1.29-1.85,3.79h8.2a12.41,12.41,0,1,1,0,24.82H18a12.37,12.37,0,0,1-1.48-.09,13.83,13.83,0,0,1-10.23-6.47,15.21,15.21,0,0,1-1.51-13l.79-2.26a14.88,14.88,0,0,1,3.53-5.65L34.74,80a18.85,18.85,0,0,1,13.48-6.13h64.43A18.82,18.82,0,0,1,126.1,80l25.72,25.71a15.18,15.18,0,0,1,3.54,5.65l.78,2.26a15.24,15.24,0,0,1-1.51,13,13.83,13.83,0,0,1-10.23,6.47A12.37,12.37,0,0,1,142.92,133.19Z" transform="translate(-3.91 -4.57)"/></svg>