<?xml version="1.0" encoding="utf-8"?>
<!-- Generator: Adobe Illustrator 23.0.0, SVG Export Plug-In . SVG Version: 6.00 Build 0)  -->
<svg version="1.1" id="Layer_1" xmlns="http://www.w3.org/2000/svg" xmlns:xlink="http://www.w3.org/1999/xlink" x="0px" y="0px"
	 viewBox="0 0 1366 768" style="enable-background:new 0 0 1366 768;" xml:space="preserve">
<style type="text/css">
	.st0{fill:none;stroke:#000000;stroke-width:2;stroke-miterlimit:10;}
	.st1{fill:#00CEC9;}
	.st2{fill:none;stroke:#00CEC3;stroke-miterlimit:10;}
	.st3{fill:#2C3A47;}
	.st4{stroke:#111111;stroke-width:0.75;stroke-miterlimit:10;}
	.st5{fill:#FFFFFF;}
	.st6{fill:none;stroke:#000000;stroke-width:2;stroke-linecap:round;stroke-miterlimit:10;}
	.st7{fill:none;stroke:#00CEC9;stroke-miterlimit:10;}
	.st8{fill:none;stroke:#2C3A47;stroke-miterlimit:10;}
</style>
<path class="st0" d="M672.85,335.21c0,0,7.4-8.58,9.1,2.76c1.71,11.34-8.25,21.76-8.25,21.76s-2.56,0.92-1.99-4.6
	C672.28,349.62,672.85,335.21,672.85,335.21z"/>
<path class="st0" d="M536.82,335.21c0,0-7.4-8.58-9.1,2.76c-1.71,11.34,8.25,21.76,8.25,21.76s2.56,0.92,1.99-4.6
	C537.39,349.62,536.82,335.21,536.82,335.21z"/>
<path class="st1" d="M762.62,120.47c0,0,0-77.26,0-81.03H525.65"/>
<line class="st2" x1="952.93" y1="224.07" x2="917.79" y2="227.72"/>
<path class="st3" d="M328.49,205.5h-38.22c-14.71,0-26.75-12.04-26.75-26.75v0c0-14.71,12.04-26.75,26.75-26.75h38.22
	c14.71,0,26.75,12.04,26.75,26.75v0C355.24,193.46,343.2,205.5,328.49,205.5z"/>
<path class="st0" d="M323.71,200.72h-38.22c-14.71,0-26.75-12.04-26.75-26.75v0c0-14.71,12.04-26.75,26.75-26.75h38.22
	c14.71,0,26.75,12.04,26.75,26.75v0C350.46,188.68,338.42,200.72,323.71,200.72z"/>
<rect x="917.67" y="427.48" class="st1" width="223.04" height="37.17"/>
<path d="M665.21,299.25c-105.4,5.6-106.44-23.86-106.44-23.86s21.16-22.94,61.4-15.3C660.41,267.73,665.21,299.25,665.21,299.25z"/>
<path d="M538.56,352.64c0,0,3.38-12.04,3.38-16.86s20.21-64.6,20.21-64.6s-21.4,19.16-24.16,50.72
	C535.23,353.46,538.56,352.64,538.56,352.64z"/>
<rect x="193.76" y="624.14" class="st3" width="1016.37" height="95.81"/>
<rect x="189.74" y="619.3" class="st0" width="1016.37" height="95.81"/>
<rect x="912.97" y="432.71" class="st0" width="223.04" height="37.17"/>
<rect x="917.67" y="472.91" class="st1" width="223.04" height="37.17"/>
<rect x="912.97" y="478.14" class="st0" width="223.04" height="37.17"/>
<rect x="917.67" y="522.48" class="st1" width="223.04" height="37.17"/>
<rect x="912.97" y="527.71" class="st0" width="223.04" height="37.17"/>
<rect x="917.67" y="572.04" class="st1" width="223.04" height="37.17"/>
<rect x="912.97" y="577.27" class="st0" width="223.04" height="37.17"/>
<path class="st0" d="M586.64,432.11c0,37.27-22.7,67.43-89.42,67.43"/>
<path class="st0" d="M626.88,432.11c0,37.27,22.7,67.43,89.42,67.43"/>
<path class="st4" d="M740.09,496.28H447.76c-1.95,0-3.53,1.71-3.53,3.83v98.5c0,2.11,1.58,3.83,3.53,3.83h292.33
	c1.95,0,3.53-1.71,3.53-3.83v-98.5C743.62,497.99,742.04,496.28,740.09,496.28z"/>
<path class="st0" d="M537.46,335.79c0,55.86,30.03,101.14,67.06,101.14c37.04,0,67.06-45.28,67.06-101.14s-30.03-77.06-67.06-77.06
	C567.49,258.72,537.46,279.93,537.46,335.79z"/>
<path d="M740.9,605.15H446.95v5.44H740.9C740.9,610.59,740.85,605.12,740.9,605.15z"/>
<path class="st0" d="M762.62,39.44H525.65v81.03h236.97C762.62,120.47,762.62,43.21,762.62,39.44z"/>
<line class="st0" x1="536.35" y1="50.75" x2="558.52" y2="50.75"/>
<line class="st0" x1="709.37" y1="109.48" x2="731.53" y2="109.48"/>
<line class="st0" x1="568.84" y1="50.28" x2="745.42" y2="50.28"/>
<line class="st0" x1="539.41" y1="67.71" x2="744.66" y2="67.71"/>
<line class="st0" x1="540.18" y1="78.54" x2="744.66" y2="78.54"/>
<line class="st0" x1="540.18" y1="88.28" x2="744.66" y2="88.28"/>
<line class="st0" x1="540.18" y1="97.7" x2="744.66" y2="97.7"/>
<path class="st1" d="M360.08,184.86h-38.22c-14.71,0-26.75-12.04-26.75-26.75v0c0-14.71,12.04-26.75,26.75-26.75h38.22
	c14.71,0,26.75,12.04,26.75,26.75v0C386.84,172.82,374.8,184.86,360.08,184.86z"/>
<path class="st0" d="M355.3,180.08h-38.22c-14.71,0-26.75-12.04-26.75-26.75v0c0-14.71,12.04-26.75,26.75-26.75h38.22
	c14.71,0,26.75,12.04,26.75,26.75v0C382.06,168.04,370.02,180.08,355.3,180.08z"/>
<circle class="st5" cx="353.14" cy="155.11" r="4.4"/>
<circle class="st5" cx="337.08" cy="155.11" r="4.4"/>
<circle class="st5" cx="321.67" cy="155.11" r="4.4"/>
<circle class="st0" cx="952.26" cy="224.32" r="81.7"/>
<line class="st6" x1="1017.17" y1="224.41" x2="1033.34" y2="224.41"/>
<line class="st6" x1="871.33" y1="224.41" x2="887.5" y2="224.41"/>
<line class="st6" x1="952.34" y1="159.58" x2="952.34" y2="143.41"/>
<line class="st6" x1="952.34" y1="305.41" x2="952.34" y2="289.24"/>
<line class="st6" x1="906.49" y1="178.56" x2="895.06" y2="167.13"/>
<line class="st6" x1="1009.61" y1="281.68" x2="998.18" y2="270.25"/>
<line class="st6" x1="998.18" y1="178.56" x2="1009.61" y2="167.13"/>
<line class="st6" x1="895.06" y1="281.68" x2="906.49" y2="270.25"/>
<circle class="st0" cx="952.29" cy="224.07" r="0.64"/>
<line class="st0" x1="952.29" y1="223.43" x2="952.04" y2="182.83"/>
<line class="st0" x1="952.29" y1="224.07" x2="930.98" y2="234.74"/>
<circle class="st7" cx="868.13" cy="137.89" r="7.28"/>
<circle class="st8" cx="780.13" cy="378.89" r="7.28"/>
<circle class="st8" cx="660.13" cy="138.89" r="5.49"/>
<circle class="st8" cx="310.13" cy="418.89" r="3.02"/>
<circle class="st7" cx="752.13" cy="138.89" r="2.4"/>
<circle class="st7" cx="535.13" cy="223.89" r="2.4"/>
<circle class="st8" cx="886.13" cy="323.89" r="4.09"/>
<circle class="st7" cx="249.13" cy="208.89" r="7.28"/>
<circle class="st8" cx="825.13" cy="243.89" r="3.02"/>
<circle class="st7" cx="425.13" cy="163.89" r="5.26"/>
<circle class="st8" cx="291.13" cy="314.89" r="4.23"/>
<circle class="st7" cx="571.13" cy="25.89" r="2.4"/>
<circle class="st7" cx="741.13" cy="295.89" r="2.4"/>
<circle class="st8" cx="431.13" cy="255.89" r="3.02"/>
<circle class="st8" cx="447.26" cy="381.66" r="3.02"/>
<circle class="st7" cx="292.26" cy="536.66" r="2.4"/>
<circle class="st7" cx="798.26" cy="491.66" r="7.28"/>
<circle class="st7" cx="402.26" cy="596.66" r="5.26"/>
<circle class="st8" cx="536.26" cy="445.66" r="4.23"/>
<circle class="st8" cx="396.26" cy="504.66" r="3.02"/>
<circle class="st7" cx="392.13" cy="331.89" r="6.6"/>
<circle class="st8" cx="885.26" cy="437.95" r="2.14"/>
<circle class="st8" cx="757.98" cy="501.59" r="3.02"/>
<circle class="st7" cx="952.18" cy="345.4" r="7.28"/>
</svg>
