<svg id="Layer_1" data-name="Layer 1" xmlns="http://www.w3.org/2000/svg" viewBox="0 0 153.87 139.41"><title>door</title><path d="M112.72,134.51H36V4.84h76.69Zm-74.9-1.79h73.11V6.63H37.82Z" transform="translate(-4.36 -4.84)"/><rect x="39.83" y="11.12" width="60.28" height="117.65" style="fill:#25ccf7"/><path d="M105.37,134.51H43.3V15.07h62.07Zm-60.28-1.79h58.49V16.86H45.09Z" transform="translate(-4.36 -4.84)"/><rect x="0.89" y="128.77" width="152.08" height="9.74" style="fill:#25ccf7"/><path d="M158.23,144.25H4.36V132.72H158.23ZM6.15,142.46h150.3v-8H6.15Z" transform="translate(-4.36 -4.84)"/><path d="M112.72,134.51H36V4.84h76.69Zm-74.9-1.79h73.11V6.63H37.82Z" transform="translate(-4.36 -4.84)"/><rect x="81.27" y="53.64" width="38.21" height="38.21" style="fill:#ffbe62"/><path d="M124.74,97.59h-40v-40h40ZM86.53,95.8H123V59.38H86.53Z" transform="translate(-4.36 -4.84)"/><rect x="93.45" y="83.02" width="14.01" height="7.54" style="fill:#fff"/><path d="M112.72,96.3H96.92V87h15.8Zm-14-1.79h12.22V88.76H98.71Z" transform="translate(-4.36 -4.84)"/><circle cx="54.36" cy="66.25" r="5.49" style="fill:#20adce"/><path d="M58.72,77.47a6.38,6.38,0,1,1,6.38-6.38A6.38,6.38,0,0,1,58.72,77.47Zm0-11a4.59,4.59,0,1,0,4.6,4.59A4.6,4.6,0,0,0,58.72,66.5Z" transform="translate(-4.36 -4.84)"/><rect x="63.77" y="89.72" width="38.21" height="38.21" style="fill:#ffbe62"/><path d="M107.24,133.67h-40v-40h40ZM69,131.88h36.43V95.46H69Z" transform="translate(-4.36 -4.84)"/><rect x="98.93" y="89.72" width="38.21" height="38.21" style="fill:#ffbe62"/><path d="M142.4,133.67h-40v-40h40Zm-38.21-1.79h36.42V95.46H104.19Z" transform="translate(-4.36 -4.84)"/><rect x="75.18" y="117.73" width="15.98" height="7.46" style="fill:#fff"/><path d="M96.43,130.93H78.65v-9.25H96.43Zm-16-1.79h14.2v-5.67H80.44Z" transform="translate(-4.36 -4.84)"/><rect x="110.58" y="117.73" width="15.07" height="7.46" style="fill:#fff"/><path d="M130.91,130.93H114.05v-9.25h16.86Zm-15.07-1.79h13.28v-5.67H115.84Z" transform="translate(-4.36 -4.84)"/></svg>