<?xml version="1.0" encoding="utf-8"?>
<!-- Generator: Adobe Illustrator 23.0.0, SVG Export Plug-In . SVG Version: 6.00 Build 0)  -->
<svg version="1.1" id="Layer_1" xmlns="http://www.w3.org/2000/svg" xmlns:xlink="http://www.w3.org/1999/xlink" x="0px" y="0px"
	 viewBox="0 0 419.62 387.36" style="enable-background:new 0 0 419.62 387.36;" xml:space="preserve">
<style type="text/css">
	.st0{fill:none;stroke:#000000;stroke-width:11;stroke-miterlimit:10;}
	.st1{fill:#00CEC9;}
	.st2{fill:#25CCF7;}
	.st3{opacity:0.52;fill:#00B894;}
	.st4{fill:#303952;}
	.st5{fill:#FFFFFF;stroke:#000000;stroke-miterlimit:10;}
	.st6{fill:none;stroke:#000000;stroke-miterlimit:10;}
	.st7{fill:none;stroke:#000000;stroke-width:0.75;stroke-miterlimit:10;}
	.st8{fill:#1A1A1A;}
	.st9{fill:none;stroke:#000000;stroke-width:2;stroke-miterlimit:10;}
</style>
<line class="st0" x1="6.98" y1="231.22" x2="413.62" y2="231.22"/>
<path class="st1" d="M192.31,353.98c0,0,8.99,7.39,14.08,9.88c5.08,8.4-6.59,10.06-10.14,9c-3.55-1.06-22.15-4.37-24.2-6.34
	c-2.05-1.97,0.71-12.54,0.71-12.54H192.31z"/>
<path class="st1" d="M218.41,339.62c0,0-1.54,9.11,0.59,11.95c2.13,2.84,17.96,6.71,17.96,6.71s8.15,1.29,10.95-3.56
	c0.04,0.09,2.36-3.83-2.72-7.66c-4.94-3.16-6.81-3.54-9.62-7.46C235.58,339.6,219.19,339.45,218.41,339.62z"/>
<path class="st2" d="M197.08,122.57c0,0-3.4-0.05-8.07-4.73c0.07,0.07-13.96,4.64-17.07,7.76c0.04,0,9.49-0.4,12.43,4.68
	c2.94,5.08,7.39,43.02,10.17,43.61l6.19-1.18L197.08,122.57z"/>
<path class="st2" d="M173.46,187.04c0,0,1.89,13.96,1.66,19.08c-0.24,5.13,0.39,11.99,0.39,11.99h17.51l-0.39-5.05
	C192.63,213.06,175.04,190.59,173.46,187.04z"/>
<path class="st3" d="M195.27,84.33c-3.31,0.92-6.93,2.39-10.32,4.73c0,0-2.04,7.73-1.06,10.85c-2,0.18-2.76,2.16-2.88,3.38
	c0,0-0.19,3.8,1.77,5.94s2.22,2.64,3.52,2.89c0.85,0.27,2.94,4.85,3.83,5.25c0,0,4.02,4.37,8.03,5.26c0-0.68,5.27-5.98,5.27-5.98
	L195.27,84.33z"/>
<path class="st1" d="M174.57,218.7c0,0-2.92,41.12-2.6,48.38c0.32,7.25-1.42,41.16-1.42,41.16s-0.47,38.32,1.1,42.11
	c0,0.08,21.37,0,21.37,0l15.02-68.96l11.24,56.18l18.33-0.47l-0.24-100.07l-43.91-6.21l-0.27-12.47
	C193.2,218.35,174.81,218.46,174.57,218.7z"/>
<path class="st2" d="M210.57,78.8l-6.41-13.39l-15.52-0.43l-11.11,7.26l1.28,14.95C178.81,87.2,191.91,74.67,210.57,78.8z"/>
<g>
	<path class="st1" d="M95.68,203c-5.33-1.63-10.54,3.01-13.31,7.86c-5.6,9.81-6.5,21.61-5.95,32.89c0.15,3.09,0.38,6.29-0.74,9.17
		c-1.47,3.78-5.11,6.38-8.97,7.61s-7.99,1.28-12.04,1.33c-3.81,0.04-7.85,0.02-11.09-1.99c-1.9-1.18-3.34-2.94-4.71-4.7
		c-4.52-5.77-8.75-11.94-10.94-18.94c-2.74-8.75-2.08-18.29,0.32-27.14s6.46-17.15,10.55-25.36c3.48-6.99,7.28-14.27,13.78-18.59
		c3.27-2.17,7.05-3.46,10.87-4.32c4.41-1,9.1-1.44,13.41-0.07c5.79,1.83,10.15,6.68,13.29,11.87c4.81,7.95,7.45,17.21,7.56,26.5
		c0.02,1.92,0.15,4.22-1.74,3.88L95.68,203z"/>
</g>
<polygon class="st4" points="407.45,15.94 349.78,24.31 350.05,362.2 409.06,369.46 "/>
<path class="st5" d="M208.34-115.36"/>
<path class="st6" d="M198.66,122.57c0,0-3.4-0.05-8.07-4.73c0.07,0.07-13.96,4.64-17.07,7.76c0.04,0,9.49-0.4,12.43,4.68
	c2.94,5.08,7.39,43.02,10.17,43.61l6.19-1.18L198.66,122.57z"/>
<path class="st7" d="M175.04,188.62c0,0,1.89,13.96,1.66,19.08c-0.24,5.13,0.39,11.99,0.39,11.99h17.51l-0.39-5.05
	C194.2,214.64,176.62,192.16,175.04,188.62z"/>
<path class="st6" d="M177.72,220.28c0,0-2.92,41.12-2.6,48.38c0.32,7.25-1.42,41.16-1.42,41.16s-0.47,38.32,1.1,42.11
	c0,0.08,21.37,0,21.37,0l15.02-68.96l11.24,56.18l18.33-0.47l-0.24-100.07l-44.47-5.68l-1.66-12.77
	C194.4,220.16,177.96,220.04,177.72,220.28z"/>
<path class="st7" d="M212.25,94.17c0,0-1.13-7.82-5.56-11.4c-0.04,0,7.7-0.27,7.7-0.27s1.65,2.7,1.65,13.22
	C216.1,95.78,212.25,94.17,212.25,94.17z"/>
<path class="st8" d="M211.33,94.17c0,0-1.13-7.82-5.56-11.4c-0.04,0,7.7-0.27,7.7-0.27s1.65,2.7,1.65,13.22
	C215.18,95.78,211.33,94.17,211.33,94.17z"/>
<path class="st6" d="M185,88.78c0,0-2.07,6.11-1.31,10.54c-1.5,0.57-2.18,1.35-2.74,2.35c-0.96-3.08-2.39-9.22-2.39-9.82
	C179.35,91.07,185,88.78,185,88.78z"/>
<path class="st8" d="M186.03,89.01c0,0-2.07,6.11-1.31,10.54c-1.5,0.57-2.18,1.35-2.74,2.35c-0.96-3.08-2.39-9.22-2.39-9.82
	C180.37,91.3,186.03,89.01,186.03,89.01z"/>
<path class="st6" d="M206.94,82.84c0,0-12.02-0.68-21.99,6.22c0,0-2.04,7.73-1.06,10.85c-2,0.18-2.76,2.16-2.88,3.38
	c0,0-0.19,3.8,1.77,5.94s2.22,2.64,3.52,2.89c0.85,0.27,2.94,4.85,3.83,5.25c0,0,4.02,4.37,8.03,5.26c0-0.68-0.31-2.82-0.31-2.82
	l16.55-7.61c0,0,0.89-5.48,0.94-7.39c0.11-0.1,2.81-3.96,0.71-8.64c0,0-3.83-2-3.83-2S212.22,90.27,206.94,82.84z"/>
<path class="st7" d="M213.92,80.66l-7.1-14.82l-17.19-0.47l-12.3,8.04l1.42,16.56C178.75,89.97,193.25,76.09,213.92,80.66z"/>
<path class="st7" d="M223.14,339.62c0,0-1.54,9.11,0.59,11.95c2.13,2.84,17.96,6.71,17.96,6.71s8.15,1.29,10.95-3.56
	c0.04,0.09,2.36-3.83-2.72-7.66c-4.94-3.16-6.81-3.54-9.62-7.46C240.31,339.6,223.92,339.45,223.14,339.62z"/>
<path class="st7" d="M239.95,339.08"/>
<path class="st7" d="M195.46,352.4c0,0,8.99,7.39,14.08,9.88c5.08,8.4-1.69,10.89-1.69,10.89s-4.64,1.18-8.19,0.11
	c-3.55-1.06-22.41-6.37-24.47-8.34c-2.05-1.97,0.71-12.54,0.71-12.54H195.46z"/>
<polygon class="st6" points="348.3,49.17 394.05,42.72 394.18,333.64 348.3,327.57 "/>
<polygon class="st9" points="343.33,19.06 398.99,11.22 399.15,365.14 343.33,357.75 "/>
<circle class="st6" cx="381.16" cy="184.69" r="5.58"/>
<path class="st7" d="M206.57,82.75c0,0-11.64-0.59-21.62,6.31c0,0-2.51,6.5-1.06,10.85"/>
<g>
	<polygon class="st4" points="289.4,231.45 238.22,239.67 193.86,233.16 188.9,176.39 232.48,171.43 284.44,169.57 	"/>
	<polygon class="st4" points="286.96,106.79 242.12,101.28 200.94,120.72 205.08,171.07 246.1,166.79 291.86,166.02 	"/>
	<polygon class="st6" points="286.62,105.9 240.41,100.22 197.99,120.25 202.24,172.14 244.51,167.72 291.67,166.93 	"/>
	<polygon class="st6" points="293.4,230.33 241.36,238.69 196.25,232.07 191.2,174.34 235.52,169.3 288.36,167.4 	"/>
</g>
<g>
	<g>
		<path d="M90.52,201.13c-9.67-1.96-14.99,9.61-17.17,17.16c-1.75,6.07-2.18,12.37-2.26,18.65c-0.09,6.92,1.63,14.55-4.7,19.28
			c-3.36,2.51-7.58,3.31-11.67,3.61c-4.22,0.31-9.26,0.7-13.37-0.55c-4.44-1.36-7.08-5.11-9.72-8.68c-3.01-4.08-5.8-8.37-7.73-13.07
			c-4.65-11.31-2.5-23.32,1.7-34.39c3.34-8.82,7.52-17.81,12.47-25.85c4.96-8.05,11.71-12.87,21-14.77
			c10.73-2.2,19.1,1.63,25.06,10.68C86.27,176.42,97.12,200.75,90.52,201.13c-0.11,0.01,0.02,3.75-0.04,3.75
			c3.35-0.19,2.08-8.85,1.9-11.13c-0.82-10.35-4.72-21.51-11.98-29.14c-8.01-8.42-20.18-7.89-30.08-3.01
			c-9.69,4.77-14.23,15.16-18.73,24.36c-7.59,15.55-14.1,33.84-9.12,51.26c1.48,5.19,4.11,9.94,7.15,14.37
			c3.03,4.4,6.32,9.79,11.7,11.44c4.81,1.48,11.04,0.97,15.96,0.29c4.89-0.68,10.13-2.72,12.63-7.3c3.59-6.59,0.88-18.1,1.65-24.86
			c1.05-9.25,5.95-28.9,18.92-26.28C90.28,204.84,90.78,201.18,90.52,201.13z"/>
	</g>
</g>
<g>
	<g>
		<path d="M64.57,200.4c-11.8,28.07-21.62,57.33-27.68,87.21c-5.5,27.13-6.29,55.79,8.34,80.31c-0.52-0.87,4.76-5.26,4.19-6.22
			c-14.62-24.51-13.86-53.19-8.34-80.31c6.08-29.88,15.88-59.13,27.68-87.21C67.82,196.44,65.52,198.13,64.57,200.4L64.57,200.4z"/>
	</g>
</g>
<path class="st1" d="M110.14,279.63c-2.39-0.73-4.72,1.35-5.96,3.52c-2.51,4.4-2.91,9.68-2.67,14.74c0.07,1.38,0.17,2.82-0.33,4.11
	c-0.66,1.69-2.29,2.86-4.02,3.41s-3.58,0.58-5.4,0.6c-1.71,0.02-3.52,0.01-4.97-0.89c-0.85-0.53-1.5-1.32-2.11-2.11
	c-2.02-2.59-3.92-5.35-4.9-8.49c-1.23-3.92-0.93-8.19,0.14-12.16c1.07-3.97,2.89-7.68,4.73-11.36c1.56-3.13,3.26-6.39,6.17-8.33
	c1.46-0.97,3.16-1.55,4.87-1.94c1.98-0.45,4.08-0.64,6.01-0.03c2.59,0.82,4.55,2.99,5.96,5.32c2.16,3.56,3.34,7.71,3.39,11.88
	c0.01,0.86,0.07,1.89-0.78,1.74L110.14,279.63z"/>
<g>
	<path d="M107.83,278.18c-8.23-1.21-8.73,12.65-8.73,18.19c0,1.99,0.29,3.87-1.09,5.54c-1.78,2.14-4.6,2.49-7.2,2.62
		c-2.78,0.14-5.31,0.11-7.47-1.83c-1.77-1.6-3.32-4.14-4.43-6.25c-3.16-5.96-2.02-11.83,0.48-17.8c1.93-4.62,4.19-10.57,8.16-13.84
		c3.94-3.23,10.68-4.39,14.8-0.96c3.99,3.32,6.4,9.8,6.34,14.91c0.01-0.48,0.02-0.97,0.03-1.45
		C108.55,277.95,108.5,278.14,107.83,278.18c-0.09,0,0.01,2.9-0.03,2.9c1.43-0.08,0.95-3.24,0.94-4.22
		c-0.06-4.32-1.12-8.6-3.39-12.3c-3.08-5.03-7.64-6.65-13.24-4.96c-5.55,1.67-7.98,6.3-10.38,11.17
		c-3.31,6.74-5.63,13.62-5.04,21.18c0.38,4.89,3.29,11.33,7.37,14.31c3.52,2.57,12.34,1.8,14.53-2.33c1.12-2.12,0.63-5.1,0.62-7.44
		c-0.02-4.85,1.38-16.46,8.6-15.41C107.7,281.07,107.98,278.2,107.83,278.18z"/>
</g>
<g>
	<path d="M95.52,279.48c-5.25,12.54-9.65,25.58-12.37,38.92c-2.5,12.27-2.82,25.02,3.7,36.14c-0.4-0.69,3.69-4.06,3.25-4.81
		c-6.52-11.12-6.21-23.87-3.7-36.14c2.72-13.34,7.12-26.38,12.37-38.92C98.03,276.41,96.25,277.73,95.52,279.48L95.52,279.48z"/>
</g>
<path class="st7" d="M173.11,126.36c0,0-6.27,2.01-6.27,11.71c-0.35,10.41,1.89,25.67,1.89,25.67s3.08,18.33,7.81,26.38
	c3.25,5.2,18.1,26.91,28.8,34.24c0-0.06,9.34-8.81,9.34-8.81l-18.21-39.43c-1.2-2.59-2.09-5.32-2.65-8.11l-6.87-33.95
	C186.95,134.05,185.92,125.22,173.11,126.36z"/>
<path class="st2" d="M174.68,126.36c-4.05,2-6.27,2.01-6.27,11.71c-0.35,10.41,1.89,25.67,1.89,25.67s3.08,18.33,7.81,26.38
	c3.25,5.2,18.1,26.91,28.8,34.24c0-0.03,1.83-1.76,3.87-3.68C210.79,220.68,174.66,162.96,174.68,126.36z"/>
<path class="st6" d="M206.76,223.88c0,0,1.6,11.53,7.63,12.95c6.03,1.42,10.65,0.53,10.65,0.53s1.72-0.24,0.3-1.48
	c-1.42-1.24-4.32-3.19-6.39-5.26c0.06,0.12-1.18-3.02-1.48-5.5c0.06,0.12,5.38,2.72,6.09,2.19c1.6-1.3-2.54-5.26-4.55-6.8
	s-4.61-4.32-4.61-4.32L206.76,223.88z"/>
</svg>
