<svg id="Layer_1" data-name="Layer 1" xmlns="http://www.w3.org/2000/svg" viewBox="0 0 269.54 259.43"><title>money</title><path d="M107.84,180.94l71.24,13.8c10.06,2,18.11,1.27,22.42-6.75h0c4.31-8,.13-15.12-7.89-19.43L142,148.83a37.47,37.47,0,0,0-15.11-2.43L47.4,150V246l58.24-14.85C189,242.53,218.69,211.7,218.69,211.7l46.73-55.5a16.6,16.6,0,0,0,5-22.87h0a16.62,16.62,0,0,0-22.87-5L196.14,166" transform="translate(-5.19 -1.33)" style="fill:#fff"/><path d="M45.72,248.12V148.44l81.08-3.71a38.54,38.54,0,0,1,15.79,2.53L194.21,167c9.88,5.3,13.16,13.61,8.77,21.79-5.32,9.88-15.73,9.25-24.23,7.61l-71.23-13.8.64-3.29,71.23,13.79c11.08,2.16,17.25.4,20.63-5.89a10.4,10.4,0,0,0,.63-9.62c-1.31-2.88-4-5.49-7.83-7.54L141.39,150.4A36.11,36.11,0,0,0,127,148.07l-77.87,3.57V243.8l56.46-14.39.33,0c81.35,11.14,111.32-18.61,111.61-18.91l47-55.75a14.88,14.88,0,1,0-16-25.07l-51.34,37.66-2-2.71L246.58,127a18.23,18.23,0,0,1,20,30.52L220,212.78c-1.31,1.37-31.23,31.32-114.23,20Z" transform="translate(-5.19 -1.33)"/><rect x="1.68" y="133.29" width="40.54" height="124.47" style="fill:#25ccf7"/><path d="M49.08,260.77H5.19V133H49.08ZM8.54,257.41H45.72V136.3H8.54Z" transform="translate(-5.19 -1.33)"/><rect x="83.15" y="38.03" width="170.15" height="78.79" transform="translate(-17.54 35.05) rotate(-11.91)" style="fill:#77ff64"/><path d="M91.81,135.52l-17-80.38,169.76-35.8,17,80.37Zm-13-77.78L94.4,131.55,257.6,97.12,242,23.31Z" transform="translate(-5.19 -1.33)"/><rect x="81.6" y="30.72" width="170.15" height="78.79" transform="translate(-19.18 61.27) rotate(-20.44)" style="fill:#77ff64"/><path d="M99.72,138.89,71,61.91,233.63,1.33l28.68,77Zm-24.36-75,26.34,70.69L258,76.34,231.65,5.65Z" transform="translate(-5.19 -1.33)"/><path d="M165.05,91l-1.29-4.28a37.17,37.17,0,0,1-12.08,1.61l.95-3.39A33.57,33.57,0,0,0,164,83.46c5.35-1.61,8.44-4.44,7.72-6.86s-4.08-2.88-10-2.47c-8.19.62-13.52.1-14.63-3.59C146,67,149.65,63,156.39,60.29L155.1,56l4.67-1.4L161,58.72a34.18,34.18,0,0,1,10.25-1.47l-1.05,3.36A30.85,30.85,0,0,0,160.28,62c-5.8,1.75-7.4,4.36-6.89,6,.67,2.2,3.79,2.47,10.8,2,8.29-.56,12.87.46,14,4.23,1,3.35-2.19,7.73-9.73,10.79l1.33,4.41Z" transform="translate(-5.19 -1.33)" style="fill:#fff"/></svg>