<svg id="Layer_1" data-name="Layer 1" xmlns="http://www.w3.org/2000/svg" viewBox="0 0 320.55 255.74"><title>plan</title><path d="M261.11,14.11,189.75,70H111.21L97,80.62S83.46,89.4,89.39,95.8s17.07-4,17.07-4l37.08,14.34L77.22,158a16.08,16.08,0,0,1-10.06,3.43L12.09,161s-26.32,36.12,44.7,35.13c13.39-.18,55.2-2.27,67.61-11.26l53-38.44,16.69,88s-15.07,10-10.87,18.89c5.18,10.93,26.64-8.33,26.64-8.33l11.32-12.32,13.89-128,72.8-52.74c12.41-9,21.62-25.41,12.63-37.82h0a45.92,45.92,0,0,0-45.86-5.78Z" transform="translate(-5.45 -2.82)" style="fill:#25ccf7"/><path d="M188.65,258.56a8.74,8.74,0,0,1-1.78-.17,7.3,7.3,0,0,1-5.28-4.25c-4.17-8.81,7-17.91,10.51-20.51l-15.93-84-50.68,36.72C110.64,197.14,59,198,56.81,198c-27.4.41-44.09-4.72-49.49-15.16-5.52-10.66,2.9-22.43,3.27-22.93l.56-.76,56,.43a14.24,14.24,0,0,0,8.9-3l63.74-49.88-33-12.77c-2.14,1.8-7.68,6-13,5.83A8.07,8.07,0,0,1,88,97.06a7,7,0,0,1-1.94-5.8c.76-6.12,9-11.59,9.88-12.2l14.62-11h78.52l71.27-55.7L274,6.62a47.85,47.85,0,0,1,47.72,6l.38.38c9.55,13.19.4,30.67-13.05,40.42l-72.13,52.25L223,233.51l-11.73,12.77C209.69,247.71,197.34,258.56,188.65,258.56Zm-9.91-115.34,17.46,92.1-1,.69c-3.82,2.54-13.09,10.47-10.22,16.54a3.61,3.61,0,0,0,2.66,2.2c5.74,1.17,17.17-7.62,21.06-11.11l10.78-11.74,13.91-128.25,73.47-53.22c11.92-8.64,20.25-23.8,12.37-35A44.11,44.11,0,0,0,275.42,10l-13.36,5.68L190.4,71.81H111.82L98.09,82.11c-2.23,1.46-7.85,5.87-8.32,9.61a3.33,3.33,0,0,0,1,2.82A4.49,4.49,0,0,0,94,96c4.14.23,9.47-4,11.2-5.61l.85-.79,41.21,15.94L78.37,159.48a18.48,18.48,0,0,1-11.22,3.82l-54.07-.43c-1.6,2.57-6.22,11-2.46,18.28,3.24,6.24,13.91,13.64,46.14,13.14,14.6-.21,55-2.56,66.55-10.92Z" transform="translate(-5.45 -2.82)"/><path d="M263.25,14.24C275.83,9,286.88,6.38,296.13,6.38c12,0,17.78,4.43,20,6.73L282.26,36.56Z" transform="translate(-5.45 -2.82)" style="fill:#fff"/><path d="M296.14,8.24c9.05,0,14.26,2.61,17,4.69L282.59,34.08,266.34,15c11.36-4.48,21.37-6.75,29.8-6.75m0-3.72c-8.68,0-20.37,2.25-35.94,9l21.74,25.53,36.83-25.53s-5.28-9-22.63-9Z" transform="translate(-5.45 -2.82)"/><circle cx="241.85" cy="49.44" r="7.65" style="fill:#fff"/><path d="M247.3,46.48a5.79,5.79,0,1,1-5.79,5.79,5.79,5.79,0,0,1,5.79-5.79m0-3.72a9.51,9.51,0,1,0,9.5,9.51,9.51,9.51,0,0,0-9.5-9.51Z" transform="translate(-5.45 -2.82)"/><circle cx="196.8" cy="85.51" r="7.65" style="fill:#fff"/><path d="M202.24,82.54a5.79,5.79,0,1,1-5.79,5.79,5.79,5.79,0,0,1,5.79-5.79m0-3.71a9.51,9.51,0,1,0,9.51,9.5,9.5,9.5,0,0,0-9.51-9.5Z" transform="translate(-5.45 -2.82)"/><path d="M156.23,128.23a7.65,7.65,0,1,1,7.65-7.65A7.66,7.66,0,0,1,156.23,128.23Z" transform="translate(-5.45 -2.82)" style="fill:#fff"/><path d="M156.23,114.79a5.79,5.79,0,1,1-5.79,5.79,5.8,5.8,0,0,1,5.79-5.79m0-3.72a9.51,9.51,0,1,0,9.5,9.51,9.51,9.51,0,0,0-9.5-9.51Z" transform="translate(-5.45 -2.82)"/><path d="M111.65,164.27a7.65,7.65,0,1,1,7.65-7.65A7.66,7.66,0,0,1,111.65,164.27Z" transform="translate(-5.45 -2.82)" style="fill:#fff"/><path d="M111.65,150.83a5.79,5.79,0,1,1-5.79,5.79,5.8,5.8,0,0,1,5.79-5.79m0-3.71a9.51,9.51,0,1,0,9.5,9.5,9.5,9.5,0,0,0-9.5-9.5Z" transform="translate(-5.45 -2.82)"/></svg>